<?xml version="1.0" encoding="utf-8"?>
<!-- Generator: Adobe Illustrator 28.0.0, SVG Export Plug-In . SVG Version: 6.00 Build 0)  -->
<svg version="1.1" id="Layer_1" xmlns="http://www.w3.org/2000/svg" xmlns:xlink="http://www.w3.org/1999/xlink" x="0px" y="0px"
	 viewBox="0 0 54 68" style="enable-background:new 0 0 54 68;" xml:space="preserve">
<style type="text/css">
	.st0{display:none;}
	.st1{display:none;fill:#0F2B46;}
	.st2{display:none;fill:#142C46;}
	.st3{display:none;fill:#FFFFFF;}
	.st4{fill:#FFFFFF;}
</style>
<path class="st0" d="M0.1,20.6v26.8c0,1.4,0.7,2.7,1.9,3.4l23.1,13.4c1.2,0.7,2.7,0.7,3.8,0L52,50.8c1.2-0.7,1.9-2,1.9-3.4V20.6
	c0-1.4-0.7-2.7-1.9-3.4L28.9,3.8c-1.2-0.7-2.7-0.7-3.8,0L2,17.3C0.8,18,0.1,19.2,0.1,20.6z"/>
<path class="st1" d="M36.7,67.5l0-5.8l0-5.3l-13.5,3.3"/>
<path class="st2" d="M36.1,55.9l2.5-0.7l-1,0.5c-0.6,0.3-1,1-1,1.7v1.1L36.1,55.9z"/>
<path class="st3" d="M17.8,18.5c1.5-1.5,4-1.5,5.5,0c1.7,1.6,1.7,4.2,0,5.8c-1.5,1.5-4,1.5-5.5,0C16.1,22.7,16.1,20.1,17.8,18.5z"/>
<path class="st3" d="M35.1,28.6c1.5-1.5,4-1.5,5.5,0c1.7,1.6,1.7,4.2,0,5.8c-1.5,1.5-4,1.5-5.5,0C33.4,32.8,33.4,30.2,35.1,28.6z"/>
<path class="st3" d="M17.8,39.2c1.5-1.5,4-1.5,5.5,0c1.7,1.6,1.7,4.2,0,5.8c-1.5,1.5-4,1.5-5.5,0C16.1,43.5,16.1,40.8,17.8,39.2z"/>
<path class="st3" d="M22.5,23.5L34,30.2l1.9-1.1l-11.5-6.7L22.5,23.5z"/>
<path class="st3" d="M34.8,35.1l-10.4,6l-1.9-1.1l10.4-6L34.8,35.1z"/>
<path d="M46.5,61H7.5C3.4,61,0,57.6,0,53.5V14.5C0,10.4,3.4,7,7.5,7h39.1c4.1,0,7.4,3.3,7.4,7.4v39.1C54,57.6,50.6,61,46.5,61z"/>
<g>
	<path class="st4" d="M10.3,44.6v-3.9l13.2-6.4l-13.2-7.2v-3.9l17.9,9.9v2.4L10.3,44.6z"/>
	<path class="st4" d="M25.8,44.6v-3.9L39,34.4l-13.2-7.2v-3.9l17.9,9.9v2.4L25.8,44.6z"/>
</g>
</svg>
